Phish
2013-07-06
Saratoga Performing Arts Center
Saratoga Springs, NY

mics were in the tapers section dfc 
mk22s were NOS/mk41s were DIN

Source:
Schoeps MK41>KC5>CMC6>Sonosax SX-R4 
Schoeps mk22>Nbob actives>Naiant PFAs>Sonosax SX-R4 (24bit/96khz)

Lineage:
WAV>USB>Macbook Pro>Audacity(mixing)>Wave Editor(tracking,fades,resample(izotope)/dither(mbit+)to 16 bit/44.1k)>XAct(FLAC 8,ffp,fix sbe)

Taped by: Andy Murray
Transferred by: Andy Murray

Set 1: 

01. crowd
02. Crowd Control > 
03. Chalk Dust Torture
04. The Wedge
05. Funky Bitch
06. Heavy Things
07. Bug
08. Bouncing Around the Room
09. Tube > 
10. Julius
11. Split Open and Melt

Set 2: 

01. crowd
02. Backwards Down the Number Line > 
03. Tweezer > 
04. Sand > 
05. Carini > 
06. Architect [1]
07. Wilson > 
08. Boogie On Reggae Woman > 
09. Possum

Encore: 
10. encore break
11. Show of Life > 
12. Tweezer Reprise

[1] Phish debut

length expanded size cdr WAVE problems fmt ratio filename
1:30.30 15946604 B --- -- ----- wav 1.0000 ph2013-07-06_mk41mk22mix_1644_d1t01.wav
4:15.10 45005564 B --- -- ----- wav 1.0000 ph2013-07-06_mk41mk22mix_1644_d1t02.wav
7:12.04 76214252 B --- -- ----- wav 1.0000 ph2013-07-06_mk41mk22mix_1644_d1t03.wav
7:06.44 75249932 B --- -- ----- wav 1.0000 ph2013-07-06_mk41mk22mix_1644_d1t04.wav
8:02.59 85163612 B --- -- ----- wav 1.0000 ph2013-07-06_mk41mk22mix_1644_d1t05.wav
7:01.06 74278556 B --- -- ----- wav 1.0000 ph2013-07-06_mk41mk22mix_1644_d1t06.wav
7:29.50 79321244 B --- -- ----- wav 1.0000 ph2013-07-06_mk41mk22mix_1644_d1t07.wav
3:53.64 41251772 B --- -- ----- wav 1.0000 ph2013-07-06_mk41mk22mix_1644_d1t08.wav
6:38.40 70301324 B --- -- ----- wav 1.0000 ph2013-07-06_mk41mk22mix_1644_d1t09.wav
8:25.47 89192588 B --- -- ----- wav 1.0000 ph2013-07-06_mk41mk22mix_1644_d1t10.wav
19:00.22 201147788 B --- -- ----- wav 1.0000 ph2013-07-06_mk41mk22mix_1644_d1t11.wav
0:53.47 9459788 B --- -- ----- wav 1.0000 ph2013-07-06_mk41mk22mix_1644_d2t01.wav
7:46.66 82357676 B --- -- ----- wav 1.0000 ph2013-07-06_mk41mk22mix_1644_d2t02.wav
10:02.37 106279868 B --- -- ----- wav 1.0000 ph2013-07-06_mk41mk22mix_1644_d2t03.wav
9:35.48 101542940 B --- -- ----- wav 1.0000 ph2013-07-06_mk41mk22mix_1644_d2t04.wav
12:03.34 127617212 B --- -- ----- wav 1.0000 ph2013-07-06_mk41mk22mix_1644_d2t05.wav
6:33.03 69332300 B --- -- ----- wav 1.0000 ph2013-07-06_mk41mk22mix_1644_d2t06.wav
4:28.43 47376380 B --- -- ----- wav 1.0000 ph2013-07-06_mk41mk22mix_1644_d2t07.wav
6:39.49 70498892 B --- -- ----- wav 1.0000 ph2013-07-06_mk41mk22mix_1644_d2t08.wav
9:20.21 98833436 B --- -- ----- wav 1.0000 ph2013-07-06_mk41mk22mix_1644_d2t09.wav
1:53.26 19994396 B --- -- ----- wav 1.0000 ph2013-07-06_mk41mk22mix_1644_d2t10.wav
5:42.62 60474668 B --- -- ----- wav 1.0000 ph2013-07-06_mk41mk22mix_1644_d2t11.wav
4:51.62 51478268 B --- -- ----- wav 1.0000 ph2013-07-06_mk41mk22mix_1644_d2t12.wav
160:27.49 1698319060 B 1.0000 (23 files)

Checksums	;flac fingerprints generated by xACT 2.23 on 2013-07-07 10:37:55 -0400

ph2013-07-06_mk41mk22mix_1644_d1t01.flac:f7fa5e80d016303ed6d90e512983ec4c
ph2013-07-06_mk41mk22mix_1644_d1t02.flac:312d26a547269700f9f4a74a52fcbfb1
ph2013-07-06_mk41mk22mix_1644_d1t03.flac:29be3f0e05b90b6c1103536e33e99967
ph2013-07-06_mk41mk22mix_1644_d1t04.flac:4ec305c85dee0c9c9ac0a665a6b208a9
ph2013-07-06_mk41mk22mix_1644_d1t05.flac:7a4b680bbf3cac80a4e55e7f2b6b9f46
ph2013-07-06_mk41mk22mix_1644_d1t06.flac:a6791a5dd6ba5b9037d1c0cbc5ab8e32
ph2013-07-06_mk41mk22mix_1644_d1t07.flac:d12dae59e7686166b78c9c4195daaa39
ph2013-07-06_mk41mk22mix_1644_d1t08.flac:11c8d951cf5634808b07bb451d849479
ph2013-07-06_mk41mk22mix_1644_d1t09.flac:fc541ad4e683dfbca3743961ff2131a9
ph2013-07-06_mk41mk22mix_1644_d1t10.flac:dbec51e113f9fe7c6a24148784ff8391
ph2013-07-06_mk41mk22mix_1644_d1t11.flac:5f6a9b7de94ca8c926149b3bdd79516a
ph2013-07-06_mk41mk22mix_1644_d2t01.flac:e47412969b3edf322f5c6a80b89bc896
ph2013-07-06_mk41mk22mix_1644_d2t02.flac:104ef61aec8cea558f576bf00205bf2e
ph2013-07-06_mk41mk22mix_1644_d2t03.flac:9fa83c9470e0d4e9c3c3c1ece31ef6c9
ph2013-07-06_mk41mk22mix_1644_d2t04.flac:404cd242a3bad95a9e7284e7aa2dcf8a
ph2013-07-06_mk41mk22mix_1644_d2t05.flac:af0c52cca294d847d36aafcc3094893b
ph2013-07-06_mk41mk22mix_1644_d2t06.flac:53ce6aa24723a7f3ea964ec03dc27cb8
ph2013-07-06_mk41mk22mix_1644_d2t07.flac:2a0dd19a8ccdb99455b12742bba8f081
ph2013-07-06_mk41mk22mix_1644_d2t08.flac:8c03b894637a3cb78aa9ddd6a336bd12
ph2013-07-06_mk41mk22mix_1644_d2t09.flac:bbb24183487819fd15b4aefaf682d03b
ph2013-07-06_mk41mk22mix_1644_d2t10.flac:324acb8fc141c6e16f459de1b7058839
ph2013-07-06_mk41mk22mix_1644_d2t11.flac:005cacd8da2b7af72bdc80ab3eec6b6a
ph2013-07-06_mk41mk22mix_1644_d2t12.flac:e02f9a02ffbd8a9c96dbf297ceac90e2